<svg width="22" height="25" viewBox="0 0 22 25" fill="none" xmlns="http://www.w3.org/2000/svg">
<path d="M0.739258 4.01562C0.739258 3.45703 0.900391 3.02018 1.22266 2.70508C1.55208 2.38997 2.00326 2.23242 2.57617 2.23242H4.66016C4.74609 1.68099 4.97884 1.2513 5.3584 0.943359C5.74512 0.628255 6.26074 0.470703 6.90527 0.470703H15.585C16.2367 0.470703 16.7523 0.628255 17.1318 0.943359C17.5114 1.2513 17.7441 1.68099 17.8301 2.23242H19.9141C20.487 2.23242 20.9346 2.38997 21.2568 2.70508C21.5863 3.02018 21.751 3.45703 21.751 4.01562C21.751 5.49089 21.5146 6.78711 21.042 7.9043C20.5693 9.01432 19.8604 9.95247 18.915 10.7188C17.9769 11.485 16.8024 12.0866 15.3916 12.5234C15.1123 12.8743 14.8151 13.193 14.5 13.4795C14.1921 13.7588 13.8877 13.9987 13.5869 14.1992V18.8076H14.9082C15.6673 18.8076 16.2402 19.0117 16.627 19.4199C17.0208 19.8281 17.2178 20.3903 17.2178 21.1064V23.2012C17.2178 23.4447 17.1354 23.6416 16.9707 23.792C16.806 23.9424 16.6126 24.0176 16.3906 24.0176H6.09961C5.8776 24.0176 5.68424 23.9424 5.51953 23.792C5.35482 23.6416 5.27246 23.4447 5.27246 23.2012V21.1064C5.27246 20.3903 5.46582 19.8281 5.85254 19.4199C6.24642 19.0117 6.81934 18.8076 7.57129 18.8076H8.90332V14.1885C8.60254 13.988 8.29818 13.748 7.99023 13.4688C7.68229 13.1895 7.38867 12.8743 7.10938 12.5234C5.69141 12.0866 4.50977 11.485 3.56445 10.7188C2.6263 9.95247 1.9209 9.01432 1.44824 7.9043C0.975586 6.78711 0.739258 5.49089 0.739258 4.01562ZM2.27539 4.16602C2.27539 5.69857 2.56543 6.98763 3.14551 8.0332C3.72559 9.07878 4.5778 9.88086 5.70215 10.4395C5.37272 9.78776 5.10775 9.08594 4.90723 8.33398C4.70671 7.57487 4.60645 6.78353 4.60645 5.95996V3.85449H2.58691C2.49382 3.85449 2.41862 3.88672 2.36133 3.95117C2.30404 4.00846 2.27539 4.08008 2.27539 4.16602ZM6.22852 6.26074C6.22852 7.02702 6.35026 7.76823 6.59375 8.48438C6.8444 9.19336 7.16667 9.85221 7.56055 10.4609C7.95443 11.0697 8.37695 11.6032 8.82812 12.0615C9.28646 12.5199 9.72689 12.8779 10.1494 13.1357C10.5791 13.3864 10.9443 13.5117 11.2451 13.5117C11.5459 13.5117 11.9076 13.3864 12.3301 13.1357C12.7598 12.8779 13.2002 12.5199 13.6514 12.0615C14.1097 11.6032 14.5358 11.0697 14.9297 10.4609C15.3236 9.85221 15.6423 9.19336 15.8857 8.48438C16.1364 7.76823 16.2617 7.02702 16.2617 6.26074V2.76953C16.2617 2.56901 16.1973 2.40788 16.0684 2.28613C15.9466 2.15723 15.7855 2.09277 15.585 2.09277H6.90527C6.70475 2.09277 6.54004 2.15723 6.41113 2.28613C6.28939 2.40788 6.22852 2.56901 6.22852 2.76953V6.26074ZM6.89453 22.3955H15.5957V21.1064C15.5957 20.8988 15.5312 20.734 15.4023 20.6123C15.2806 20.4906 15.1159 20.4297 14.9082 20.4297H7.57129C7.37077 20.4297 7.20605 20.4906 7.07715 20.6123C6.9554 20.734 6.89453 20.8988 6.89453 21.1064V22.3955ZM10.5254 18.8076H11.9648V15.0156C11.7142 15.0872 11.4743 15.123 11.2451 15.123C11.016 15.123 10.776 15.0872 10.5254 15.0156V18.8076ZM16.7881 10.4395C17.9124 9.88086 18.7646 9.07878 19.3447 8.0332C19.9248 6.98763 20.2148 5.69857 20.2148 4.16602C20.2148 4.08008 20.1862 4.00846 20.1289 3.95117C20.0716 3.88672 19.9964 3.85449 19.9033 3.85449H17.8838V5.95996C17.8838 6.78353 17.7835 7.57487 17.583 8.33398C17.3825 9.08594 17.1175 9.78776 16.7881 10.4395Z" fill="black"/>
</svg>
