<svg width="23" height="18" viewBox="0 0 23 18" fill="none" xmlns="http://www.w3.org/2000/svg">
<path d="M3.18616 17.8721C2.23694 17.8721 1.51917 17.6289 1.03284 17.1426C0.546509 16.6621 0.303345 15.9531 0.303345 15.0156V5.7959C0.303345 4.8584 0.546509 4.14941 1.03284 3.66895C1.51917 3.18262 2.23694 2.93945 3.18616 2.93945H5.54163C5.88733 2.93945 6.14514 2.90137 6.31506 2.8252C6.48499 2.74316 6.67542 2.59375 6.88635 2.37695L7.58069 1.62109C7.8092 1.38086 8.0553 1.20215 8.31897 1.08496C8.5885 0.961914 8.94592 0.900391 9.39124 0.900391H12.8893C13.3346 0.900391 13.692 0.961914 13.9615 1.08496C14.2311 1.20215 14.4772 1.38086 14.6998 1.62109L15.403 2.37695C15.5436 2.52344 15.6696 2.6377 15.7809 2.71973C15.8981 2.80176 16.027 2.86035 16.1676 2.89551C16.3141 2.9248 16.5045 2.93945 16.7389 2.93945H19.1383C20.0875 2.93945 20.8053 3.18262 21.2916 3.66895C21.7838 4.14941 22.0299 4.8584 22.0299 5.7959V15.0156C22.0299 15.9531 21.7838 16.6621 21.2916 17.1426C20.8053 17.6289 20.0875 17.8721 19.1383 17.8721H3.18616ZM3.29163 16.1406H19.0328C19.4371 16.1406 19.7477 16.0352 19.9645 15.8242C20.1871 15.6133 20.2985 15.2939 20.2985 14.8662V5.94531C20.2985 5.51758 20.1871 5.19824 19.9645 4.9873C19.7477 4.77637 19.4371 4.6709 19.0328 4.6709H16.2379C15.8395 4.6709 15.5201 4.62695 15.2799 4.53906C15.0455 4.45117 14.817 4.28711 14.5944 4.04688L13.9176 3.2998C13.6715 3.03027 13.4518 2.85156 13.2584 2.76367C13.0651 2.66992 12.775 2.62305 12.3883 2.62305H9.89221C9.51135 2.62305 9.22131 2.66992 9.02209 2.76367C8.82874 2.85156 8.60901 3.03027 8.36292 3.2998L7.69495 4.04688C7.47229 4.28711 7.24084 4.45117 7.00061 4.53906C6.76038 4.62695 6.44397 4.6709 6.05139 4.6709H3.29163C2.88733 4.6709 2.57678 4.77637 2.35999 4.9873C2.14319 5.19824 2.03479 5.51758 2.03479 5.94531V14.8662C2.03479 15.2939 2.14319 15.6133 2.35999 15.8242C2.57678 16.0352 2.88733 16.1406 3.29163 16.1406ZM11.1666 14.9717C10.5045 14.9717 9.88635 14.8516 9.31213 14.6113C8.73792 14.3652 8.23401 14.0254 7.80042 13.5918C7.37268 13.1582 7.03577 12.6543 6.78967 12.0801C6.54358 11.5059 6.42053 10.8848 6.42053 10.2168C6.42053 9.55469 6.54358 8.93652 6.78967 8.3623C7.03577 7.78809 7.37268 7.28418 7.80042 6.85059C8.23401 6.41699 8.73792 6.08008 9.31213 5.83984C9.88635 5.59375 10.5045 5.4707 11.1666 5.4707C12.0397 5.4707 12.8365 5.68164 13.5573 6.10352C14.278 6.52539 14.8492 7.09668 15.2711 7.81738C15.693 8.53809 15.9039 9.33789 15.9039 10.2168C15.9039 10.8848 15.7809 11.5059 15.5348 12.0801C15.2946 12.6543 14.9576 13.1582 14.524 13.5918C14.0905 14.0254 13.5865 14.3652 13.0123 14.6113C12.4381 14.8516 11.8229 14.9717 11.1666 14.9717ZM11.1666 13.3984C11.7526 13.3984 12.2858 13.2578 12.7662 12.9766C13.2467 12.6895 13.6276 12.3057 13.9088 11.8252C14.1959 11.3447 14.3395 10.8086 14.3395 10.2168C14.3395 9.63086 14.1959 9.09766 13.9088 8.61719C13.6276 8.13672 13.2467 7.75293 12.7662 7.46582C12.2858 7.17871 11.7526 7.03516 11.1666 7.03516C10.5807 7.03516 10.0475 7.17871 9.56702 7.46582C9.08655 7.75293 8.70276 8.13672 8.41565 8.61719C8.12854 9.09766 7.98499 9.63086 7.98499 10.2168C7.98499 10.8086 8.12854 11.3447 8.41565 11.8252C8.70276 12.3057 9.08655 12.6895 9.56702 12.9766C10.0475 13.2578 10.5807 13.3984 11.1666 13.3984ZM16.2115 7.06152C16.2115 6.75684 16.3229 6.49316 16.5455 6.27051C16.774 6.04199 17.0465 5.92773 17.3629 5.92773C17.6676 5.92773 17.9313 6.04199 18.1539 6.27051C18.3824 6.49316 18.4967 6.75684 18.4967 7.06152C18.4967 7.37793 18.3824 7.64746 18.1539 7.87012C17.9313 8.08691 17.6676 8.19531 17.3629 8.19531C17.0465 8.19531 16.774 8.08691 16.5455 7.87012C16.3229 7.65332 16.2115 7.38379 16.2115 7.06152Z" fill="#999999"/>
</svg>
