<svg width="19" height="24" viewBox="0 0 19 24" fill="none" xmlns="http://www.w3.org/2000/svg">
<path d="M9.36621 23.8896C7.66895 23.8896 6.18652 23.5853 4.91895 22.9766C3.65853 22.3678 2.67741 21.5156 1.97559 20.4199C1.27376 19.3242 0.922852 18.0423 0.922852 16.5742C0.922852 15.8008 0.983724 15.1133 1.10547 14.5117C1.23438 13.9102 1.38835 13.3695 1.56738 12.8896C1.75358 12.4027 1.93978 11.9443 2.12598 11.5146C2.31217 11.085 2.46615 10.6589 2.58789 10.2363C2.70964 9.8138 2.77051 9.36263 2.77051 8.88281C2.77051 8.64648 2.75618 8.38867 2.72754 8.10938C2.70605 7.82292 2.69531 7.61165 2.69531 7.47559C2.69531 7.23926 2.76335 7.0459 2.89941 6.89551C3.03548 6.74512 3.21452 6.66992 3.43652 6.66992C3.81608 6.66992 4.19922 6.78451 4.58594 7.01367C4.97982 7.24284 5.33073 7.56152 5.63867 7.96973C5.95378 8.37077 6.19368 8.83626 6.3584 9.36621L5.82129 9.47363C5.99316 9.17285 6.10059 8.90788 6.14355 8.67871C6.19368 8.44238 6.21875 8.20247 6.21875 7.95898C6.21159 7.25 6.0791 6.57682 5.82129 5.93945C5.57064 5.30208 5.24837 4.69694 4.85449 4.12402C4.46777 3.55111 4.06315 3.01042 3.64062 2.50195C3.52604 2.37305 3.4401 2.24056 3.38281 2.10449C3.32552 1.96842 3.29688 1.83236 3.29688 1.69629C3.29688 1.35254 3.44368 1.09473 3.7373 0.922852C4.03809 0.743815 4.44271 0.654297 4.95117 0.654297C5.89648 0.654297 6.89193 0.76888 7.9375 0.998047C8.99023 1.22005 10.0322 1.57096 11.0635 2.05078C12.1019 2.52344 13.0866 3.12858 14.0176 3.86621C14.9486 4.59668 15.7721 5.4668 16.4883 6.47656C17.2116 7.47917 17.7809 8.62858 18.1963 9.9248C18.6117 11.221 18.8193 12.6712 18.8193 14.2754C18.8193 15.7148 18.5938 17.0254 18.1426 18.207C17.6986 19.3887 17.0576 20.402 16.2197 21.2471C15.3818 22.0921 14.3828 22.7438 13.2227 23.2021C12.0697 23.6605 10.7842 23.8896 9.36621 23.8896ZM9.47363 22.3857C11.0205 22.3857 12.3776 22.042 13.5449 21.3545C14.7122 20.6742 15.6182 19.7217 16.2627 18.4971C16.9144 17.2725 17.2402 15.8473 17.2402 14.2217C17.2402 12.8467 17.0469 11.554 16.6602 10.3438C16.2734 9.1263 15.7113 8.01986 14.9736 7.02441C14.236 6.02897 13.3444 5.1696 12.2988 4.44629C11.2604 3.71582 10.0824 3.14648 8.76465 2.73828C7.4541 2.33008 6.02539 2.10807 4.47852 2.07227L4.76855 1.72852C5.34863 2.26562 5.84635 2.87435 6.26172 3.55469C6.67708 4.23503 6.99577 4.96549 7.21777 5.74609C7.44694 6.51953 7.56152 7.31803 7.56152 8.1416C7.56152 8.48535 7.52214 8.86133 7.44336 9.26953C7.37174 9.67057 7.2679 10.0537 7.13184 10.4189C7.00293 10.7842 6.84538 11.085 6.65918 11.3213C6.48014 11.5505 6.2832 11.665 6.06836 11.665C5.98242 11.665 5.91081 11.64 5.85352 11.5898C5.79622 11.5326 5.75684 11.4466 5.73535 11.332C5.62077 10.8379 5.47754 10.4046 5.30566 10.0322C5.13379 9.65267 4.92969 9.32682 4.69336 9.05469C4.46419 8.77539 4.2028 8.5498 3.90918 8.37793L4.15625 7.94824C4.20638 8.11296 4.24935 8.28841 4.28516 8.47461C4.32096 8.66081 4.33887 8.85775 4.33887 9.06543C4.33887 9.62402 4.27441 10.1325 4.14551 10.5908C4.02376 11.042 3.86621 11.4788 3.67285 11.9014C3.48665 12.3239 3.29688 12.7607 3.10352 13.2119C2.91732 13.6631 2.75977 14.1608 2.63086 14.7051C2.50195 15.2493 2.4375 15.8724 2.4375 16.5742C2.4375 17.7344 2.73112 18.7513 3.31836 19.625C3.9056 20.4915 4.72559 21.1683 5.77832 21.6553C6.83822 22.1423 8.06999 22.3857 9.47363 22.3857ZM9.61328 20.8711C8.61068 20.8711 7.80143 20.5954 7.18555 20.0439C6.57682 19.4854 6.27246 18.7549 6.27246 17.8525C6.27246 17.3799 6.34049 16.9753 6.47656 16.6387C6.61979 16.2949 6.78451 15.987 6.9707 15.7148C7.1569 15.4355 7.32878 15.1706 7.48633 14.9199C7.64388 14.6621 7.74414 14.3792 7.78711 14.0713C7.79427 14.0212 7.81217 13.9925 7.84082 13.9854C7.87663 13.971 7.91243 13.9782 7.94824 14.0068C8.19889 14.2288 8.40658 14.4759 8.57129 14.748C8.74316 15.013 8.89714 15.2995 9.0332 15.6074C9.31966 15.2207 9.52376 14.6514 9.64551 13.8994C9.76725 13.1403 9.78158 12.3203 9.68848 11.4395C9.68132 11.3893 9.69206 11.3535 9.7207 11.332C9.74935 11.3034 9.78874 11.2998 9.83887 11.3213C10.6266 11.6937 11.2855 12.1807 11.8154 12.7822C12.3454 13.3838 12.7428 14.0391 13.0078 14.748C13.2799 15.457 13.416 16.1624 13.416 16.8643C13.416 17.5732 13.2764 18.2321 12.9971 18.8408C12.7178 19.4495 12.2952 19.9401 11.7295 20.3125C11.1709 20.6849 10.4655 20.8711 9.61328 20.8711Z" fill="#55C360"/>
</svg>
