<svg width="26" height="25" viewBox="0 0 26 25" fill="none" xmlns="http://www.w3.org/2000/svg">
<path d="M18.0449 6.59375C17.8659 6.30729 17.7334 5.94206 17.6475 5.49805C17.5687 5.04688 17.5293 4.56706 17.5293 4.05859C17.5365 3.55013 17.583 3.04883 17.6689 2.55469C17.762 2.06055 17.8945 1.62012 18.0664 1.2334C18.2383 0.839518 18.4495 0.542318 18.7002 0.341797C18.9508 0.141276 19.2409 0.0768229 19.5703 0.148438C19.8854 0.227214 20.1074 0.413411 20.2363 0.707031C20.3652 1.00065 20.4189 1.3623 20.3975 1.79199C20.376 2.21452 20.2972 2.66569 20.1611 3.14551C20.0251 3.62533 19.8424 4.0944 19.6133 4.55273C19.3913 5.01107 19.1442 5.42285 18.8721 5.78809C18.5999 6.14616 18.3242 6.41471 18.0449 6.59375ZM18.3027 7.0127C18.3027 6.59733 18.403 6.12826 18.6035 5.60547C18.804 5.07552 19.0726 4.54199 19.4092 4.00488C19.7529 3.46777 20.1325 2.96647 20.5479 2.50098C20.9704 2.03548 21.4001 1.65234 21.8369 1.35156C22.2738 1.05078 22.6891 0.875326 23.083 0.825195C23.484 0.767904 23.8314 0.886068 24.125 1.17969C24.4186 1.47331 24.5368 1.82064 24.4795 2.22168C24.4294 2.62272 24.2539 3.04167 23.9531 3.47852C23.6523 3.91536 23.2692 4.34505 22.8037 4.76758C22.3382 5.18294 21.8369 5.5625 21.2998 5.90625C20.7627 6.24284 20.2327 6.51139 19.71 6.71191C19.1872 6.91243 18.7181 7.0127 18.3027 7.0127ZM18.7217 7.25977C18.9007 6.98047 19.1693 6.70475 19.5273 6.43262C19.8926 6.16048 20.3044 5.91341 20.7627 5.69141C21.2282 5.4694 21.7008 5.29036 22.1807 5.1543C22.6605 5.01107 23.1117 4.93229 23.5342 4.91797C23.9567 4.89648 24.3148 4.95378 24.6084 5.08984C24.902 5.21875 25.0882 5.44434 25.167 5.7666C25.2458 6.08887 25.1813 6.37533 24.9736 6.62598C24.7731 6.86947 24.4759 7.07715 24.082 7.24902C23.6953 7.4209 23.2549 7.55339 22.7607 7.64648C22.2666 7.73242 21.7617 7.77897 21.2461 7.78613C20.7376 7.78613 20.2614 7.74316 19.8174 7.65723C19.3734 7.57129 19.0081 7.4388 18.7217 7.25977ZM18.4639 5.85254L19.3877 6.78711C20.0752 7.48177 20.5514 8.21582 20.8164 8.98926C21.0814 9.7627 21.1423 10.5361 20.999 11.3096C20.8558 12.0758 20.5156 12.8171 19.9785 13.5332C19.4486 14.2422 18.7253 14.8831 17.8086 15.4561L3.52148 24.4258C2.9987 24.7552 2.52962 24.8626 2.11426 24.748C1.70605 24.6406 1.36589 24.4473 1.09375 24.168C0.771484 23.8529 0.567383 23.484 0.481445 23.0615C0.402669 22.6462 0.513672 22.195 0.814453 21.708L9.78418 7.45312C10.3643 6.5293 11.0124 5.79883 11.7285 5.26172C12.4447 4.71745 13.1895 4.3737 13.9629 4.23047C14.7435 4.08724 15.5169 4.14811 16.2832 4.41309C17.0495 4.67806 17.7764 5.15788 18.4639 5.85254ZM17.3252 7.00195C16.6449 6.31445 15.9502 5.90267 15.2412 5.7666C14.5322 5.62337 13.8304 5.76302 13.1357 6.18555C12.4482 6.60091 11.7965 7.29915 11.1807 8.28027L2.21094 22.5459C2.13932 22.6605 2.12142 22.7679 2.15723 22.8682C2.2002 22.9684 2.27181 23.0365 2.37207 23.0723C2.47233 23.1081 2.58333 23.0902 2.70508 23.0186L16.9707 14.0596C17.9447 13.4437 18.6357 12.7956 19.0439 12.1152C19.4593 11.4277 19.599 10.7331 19.4629 10.0312C19.3268 9.32227 18.9186 8.62402 18.2383 7.93652L17.3252 7.00195ZM13.9629 10.3535C13.8268 10.4967 13.6621 10.5719 13.4688 10.5791C13.2754 10.5791 13.1071 10.5075 12.9639 10.3643L10.4609 7.91504L11.4385 6.89453L13.9414 9.36523C14.0846 9.50846 14.1562 9.67676 14.1562 9.87012C14.1634 10.0563 14.099 10.2174 13.9629 10.3535ZM11.5244 11.8682C11.3812 12.0114 11.2129 12.083 11.0195 12.083C10.8333 12.083 10.6686 12.0114 10.5254 11.8682L8.54883 9.93457L9.52637 8.9248L11.5137 10.8691C11.6641 11.0124 11.7357 11.1807 11.7285 11.374C11.7285 11.5674 11.6605 11.7321 11.5244 11.8682ZM9.11816 16.3691C9.26139 16.2259 9.42611 16.1543 9.6123 16.1543C9.80566 16.1471 9.97396 16.2152 10.1172 16.3584L12.1045 18.3027L10.8799 19.0654L9.12891 17.3682C8.98568 17.2249 8.91406 17.0566 8.91406 16.8633C8.91406 16.6699 8.9821 16.5052 9.11816 16.3691ZM7.20605 18.3672C7.34212 18.2311 7.50684 18.1631 7.7002 18.1631C7.89355 18.1559 8.06185 18.224 8.20508 18.3672L9.67676 19.8174L8.43066 20.5801L7.2168 19.3662C7.07357 19.223 7.00195 19.0583 7.00195 18.8721C7.00195 18.6787 7.06999 18.5104 7.20605 18.3672Z" fill="#EB8003"/>
</svg>
