<svg width="19" height="19" viewBox="0 0 19 19" fill="none" xmlns="http://www.w3.org/2000/svg">
<path d="M0.96582 14.4004C0.96582 14.0898 1.04785 13.7939 1.21191 13.5127C1.37598 13.2256 1.58398 12.9502 1.83594 12.6865C2.09375 12.4229 2.35449 12.1621 2.61816 11.9043C2.82324 11.7051 2.98145 11.4443 3.09277 11.1221C3.20996 10.7998 3.29785 10.4453 3.35645 10.0586C3.41504 9.67188 3.46191 9.27637 3.49707 8.87207C3.53223 7.76465 3.66992 6.7832 3.91016 5.92773C4.15625 5.07227 4.51953 4.35449 5 3.77441C5.48633 3.19434 6.11328 2.7666 6.88086 2.49121C7.04492 1.91113 7.3584 1.4248 7.82129 1.03223C8.28418 0.639648 8.84082 0.443359 9.49121 0.443359C10.1475 0.443359 10.707 0.639648 11.1699 1.03223C11.6328 1.4248 11.9463 1.91113 12.1104 2.49121C12.8779 2.7666 13.502 3.19434 13.9824 3.77441C14.4688 4.35449 14.832 5.07227 15.0723 5.92773C15.3184 6.7832 15.459 7.76465 15.4941 8.87207C15.5293 9.27637 15.5762 9.67188 15.6348 10.0586C15.6934 10.4453 15.7783 10.7998 15.8896 11.1221C16.0068 11.4443 16.168 11.7051 16.373 11.9043C16.6367 12.1621 16.8945 12.4229 17.1465 12.6865C17.4043 12.9502 17.6152 13.2256 17.7793 13.5127C17.9434 13.7939 18.0254 14.0898 18.0254 14.4004C18.0254 14.7754 17.8936 15.0771 17.6299 15.3057C17.3721 15.5283 17.0146 15.6396 16.5576 15.6396H12.9365C12.9131 16.208 12.752 16.7354 12.4531 17.2217C12.1602 17.7139 11.7588 18.1094 11.249 18.4082C10.7451 18.7129 10.1592 18.8652 9.49121 18.8652C8.8291 18.8652 8.24316 18.7129 7.7334 18.4082C7.22949 18.1094 6.82812 17.7139 6.5293 17.2217C6.23633 16.7354 6.07812 16.208 6.05469 15.6396H2.43359C1.97656 15.6396 1.61621 15.5283 1.35254 15.3057C1.09473 15.0771 0.96582 14.7754 0.96582 14.4004ZM3.06641 14.0312H15.8984V13.9258C15.8223 13.8496 15.7227 13.7471 15.5996 13.6182C15.4766 13.4893 15.3389 13.3486 15.1865 13.1963C15.04 13.0381 14.8936 12.877 14.7471 12.7129C14.5947 12.543 14.4629 12.3379 14.3516 12.0977C14.2402 11.8516 14.1465 11.5762 14.0703 11.2715C13.9941 10.9609 13.9297 10.624 13.877 10.2607C13.8301 9.89746 13.7949 9.50488 13.7715 9.08301C13.7363 7.89941 13.6016 6.95605 13.3672 6.25293C13.1328 5.54395 12.8223 5.0166 12.4355 4.6709C12.0547 4.31934 11.627 4.0791 11.1523 3.9502C11.0527 3.92676 10.9707 3.88574 10.9062 3.82715C10.8477 3.7627 10.8154 3.67187 10.8096 3.55469C10.7861 3.10937 10.6572 2.74902 10.4229 2.47363C10.1943 2.19824 9.88379 2.06055 9.49121 2.06055C9.11035 2.06055 8.80273 2.19824 8.56836 2.47363C8.33398 2.74902 8.20508 3.10937 8.18164 3.55469C8.17578 3.67187 8.14062 3.7627 8.07617 3.82715C8.01758 3.88574 7.93555 3.92676 7.83008 3.9502C7.35547 4.0791 6.92773 4.31934 6.54688 4.6709C6.16602 5.0166 5.8584 5.54395 5.62402 6.25293C5.38965 6.95605 5.25488 7.89941 5.21973 9.08301C5.19629 9.50488 5.1582 9.89746 5.10547 10.2607C5.05859 10.624 4.99414 10.9609 4.91211 11.2715C4.83594 11.5762 4.74219 11.8516 4.63086 12.0977C4.51953 12.3379 4.3877 12.543 4.23535 12.7129C4.09473 12.877 3.94824 13.0381 3.7959 13.1963C3.64355 13.3486 3.50293 13.4893 3.37402 13.6182C3.24512 13.7471 3.14258 13.8496 3.06641 13.9258V14.0312ZM7.71582 15.6396C7.74512 16.1963 7.92383 16.6387 8.25195 16.9668C8.58594 17.2949 8.99902 17.459 9.49121 17.459C9.99512 17.459 10.4082 17.2949 10.7305 16.9668C11.0586 16.6387 11.2402 16.1963 11.2754 15.6396H7.71582Z" fill="black"/>
</svg>
