<svg width="19" height="15" viewBox="0 0 19 15" fill="none" xmlns="http://www.w3.org/2000/svg">
<path d="M2.51367 7.32617C2.1901 7.32617 1.89388 7.24642 1.625 7.08691C1.35612 6.92741 1.14193 6.71322 0.982422 6.44434C0.822917 6.17546 0.743164 5.87695 0.743164 5.54883C0.743164 5.22526 0.822917 4.93132 0.982422 4.66699C1.14193 4.39811 1.35612 4.18392 1.625 4.02441C1.89388 3.86491 2.1901 3.78516 2.51367 3.78516C2.83724 3.78516 3.13346 3.86719 3.40234 4.03125C3.67122 4.19076 3.88314 4.40495 4.03809 4.67383C4.19759 4.93815 4.27734 5.22982 4.27734 5.54883C4.27734 5.87695 4.19759 6.17546 4.03809 6.44434C3.88314 6.71322 3.67122 6.92741 3.40234 7.08691C3.13346 7.24642 2.83724 7.32617 2.51367 7.32617ZM2.51367 6.25977C2.70964 6.25977 2.8737 6.19141 3.00586 6.05469C3.14258 5.91341 3.21094 5.74479 3.21094 5.54883C3.21094 5.36198 3.14258 5.2002 3.00586 5.06348C2.86914 4.9222 2.70508 4.85156 2.51367 4.85156C2.32227 4.85156 2.15592 4.91992 2.01465 5.05664C1.87793 5.19336 1.80957 5.35742 1.80957 5.54883C1.80957 5.74479 1.87793 5.91341 2.01465 6.05469C2.15592 6.19141 2.32227 6.25977 2.51367 6.25977ZM9.51367 4.48242C9.1901 4.48242 8.89388 4.40267 8.625 4.24316C8.35612 4.08366 8.14193 3.87174 7.98242 3.60742C7.82292 3.33854 7.74316 3.04004 7.74316 2.71191C7.74316 2.38835 7.82064 2.0944 7.97559 1.83008C8.13509 1.5612 8.34928 1.34701 8.61816 1.1875C8.88704 1.02799 9.18555 0.948242 9.51367 0.948242C9.83724 0.948242 10.1312 1.02799 10.3955 1.1875C10.6644 1.34701 10.8786 1.5612 11.0381 1.83008C11.1976 2.0944 11.2773 2.38835 11.2773 2.71191C11.2773 3.04004 11.1976 3.33854 11.0381 3.60742C10.8786 3.87174 10.6644 4.08366 10.3955 4.24316C10.1312 4.40267 9.83724 4.48242 9.51367 4.48242ZM9.51367 3.41602C9.70964 3.41602 9.8737 3.34766 10.0059 3.21094C10.1426 3.06966 10.2109 2.90332 10.2109 2.71191C10.2109 2.52507 10.1403 2.36328 9.99902 2.22656C9.8623 2.08529 9.70052 2.01465 9.51367 2.01465C9.32227 2.01465 9.15592 2.08301 9.01465 2.21973C8.87793 2.35189 8.80957 2.51595 8.80957 2.71191C8.80957 2.90332 8.87793 3.06966 9.01465 3.21094C9.15592 3.34766 9.32227 3.41602 9.51367 3.41602ZM16.5068 7.32617C16.1833 7.32617 15.887 7.24642 15.6182 7.08691C15.3493 6.92741 15.1351 6.71322 14.9756 6.44434C14.8206 6.17546 14.7432 5.87695 14.7432 5.54883C14.7432 5.22982 14.8206 4.93815 14.9756 4.67383C15.1351 4.40495 15.3493 4.19076 15.6182 4.03125C15.887 3.86719 16.1833 3.78516 16.5068 3.78516C16.8304 3.78516 17.1266 3.86491 17.3955 4.02441C17.6644 4.18392 17.8786 4.39811 18.0381 4.66699C18.1976 4.93132 18.2773 5.22526 18.2773 5.54883C18.2773 5.87695 18.1976 6.17546 18.0381 6.44434C17.8786 6.71322 17.6644 6.92741 17.3955 7.08691C17.1266 7.24642 16.8304 7.32617 16.5068 7.32617ZM16.5068 6.25977C16.6982 6.25977 16.8623 6.19141 16.999 6.05469C17.1403 5.91341 17.2109 5.74479 17.2109 5.54883C17.2109 5.35742 17.1403 5.19336 16.999 5.05664C16.8623 4.91992 16.6982 4.85156 16.5068 4.85156C16.3154 4.85156 16.1514 4.9222 16.0146 5.06348C15.8779 5.2002 15.8096 5.36198 15.8096 5.54883C15.8096 5.74479 15.8757 5.91341 16.0078 6.05469C16.1445 6.19141 16.3109 6.25977 16.5068 6.25977ZM3.32715 6.875L3.87402 6L5.87012 7.23047C5.98405 7.30339 6.07747 7.33301 6.15039 7.31934C6.22331 7.30111 6.29167 7.2487 6.35547 7.16211L8.71387 3.99707L9.69141 4.41406L7.10742 7.87988C6.87956 8.18066 6.6084 8.34473 6.29395 8.37207C5.97949 8.39941 5.71289 8.34473 5.49414 8.20801L3.32715 6.875ZM15.6934 6.86816L13.4785 8.22852C13.2826 8.35156 13.0296 8.39941 12.7197 8.37207C12.4098 8.34473 12.1455 8.18294 11.9268 7.88672L9.33594 4.40723L10.3066 3.9834L12.6445 7.13477C12.7129 7.22591 12.7858 7.2806 12.8633 7.29883C12.9408 7.31706 13.041 7.28743 13.1641 7.20996L15.1465 5.99316L15.6934 6.86816ZM4.18848 11.8857V10.8535H14.8389V11.8857H4.18848ZM2.47949 7.02539L3.43652 6.58789L4.89941 12.5762C5.01335 13.0501 5.32096 13.2871 5.82227 13.2871H13.2051C13.7018 13.2871 14.0094 13.0501 14.1279 12.5762L15.584 6.58789L16.5479 7.02539L15.1533 12.7061C15.0212 13.2438 14.8024 13.6471 14.4971 13.916C14.1917 14.1849 13.7565 14.3193 13.1914 14.3193H5.8291C5.264 14.3193 4.82878 14.1849 4.52344 13.916C4.22266 13.6471 4.00618 13.2438 3.87402 12.7061L2.47949 7.02539Z" fill="black"/>
</svg>
