<svg width="23" height="19" viewBox="0 0 23 19" fill="none" xmlns="http://www.w3.org/2000/svg">
<path d="M8.26501 18.1182C7.5033 18.1182 6.92908 17.9248 6.54236 17.5381C6.15564 17.1572 5.96228 16.5771 5.96228 15.7979L8.81873 13.2842C8.98279 13.1494 9.14685 13.0469 9.31091 12.9766C9.47498 12.9062 9.63904 12.8711 9.8031 12.8711C9.98474 12.8711 10.1635 12.9062 10.3392 12.9766C10.515 13.041 10.6849 13.1494 10.849 13.3018L12.2289 14.5498L15.6918 11.4824C15.8676 11.3242 16.0492 11.21 16.2367 11.1396C16.4242 11.0693 16.6263 11.0342 16.8431 11.0342C17.0482 11.0342 17.2474 11.0723 17.4408 11.1484C17.64 11.2246 17.8246 11.3389 17.9945 11.4912L22.0726 15.3232V15.8154C22.0726 16.5889 21.8763 17.166 21.4838 17.5469C21.097 17.9277 20.5258 18.1182 19.7699 18.1182H8.26501ZM11.6488 11.6758C11.1332 11.6758 10.6967 11.4941 10.3392 11.1309C9.98181 10.7617 9.8031 10.3223 9.8031 9.8125C9.8031 9.31445 9.98181 8.88379 10.3392 8.52051C10.6967 8.15137 11.1332 7.9668 11.6488 7.9668C11.9828 7.9668 12.2875 8.05176 12.5629 8.22168C12.8441 8.3916 13.0668 8.61719 13.2308 8.89844C13.4008 9.17969 13.4857 9.48438 13.4857 9.8125C13.4857 10.3223 13.3041 10.7617 12.9408 11.1309C12.5834 11.4941 12.1527 11.6758 11.6488 11.6758ZM3.60681 14.5938C2.65759 14.5938 1.93982 14.3535 1.45349 13.873C0.967163 13.3926 0.723999 12.6807 0.723999 11.7373V3.3877C0.723999 2.4502 0.967163 1.74121 1.45349 1.26074C1.93982 0.774414 2.65759 0.53125 3.60681 0.53125H15.6039C16.5531 0.53125 17.2709 0.774414 17.7572 1.26074C18.2494 1.74121 18.4955 2.4502 18.4955 3.3877V5.37402H16.764V3.5459C16.764 3.11816 16.6527 2.79883 16.4301 2.58789C16.2133 2.37109 15.9027 2.2627 15.4984 2.2627H3.71228C3.30212 2.2627 2.98865 2.37109 2.77185 2.58789C2.56091 2.79883 2.45544 3.11816 2.45544 3.5459V11.5967C2.45544 12.0186 2.56091 12.3379 2.77185 12.5547C2.98865 12.7656 3.30212 12.8711 3.71228 12.8711H5.91833V14.5938H3.60681ZM8.05408 18.7773C7.10486 18.7773 6.38708 18.5342 5.90076 18.0479C5.41443 17.5674 5.17126 16.8584 5.17126 15.9209V7.57129C5.17126 6.62793 5.41443 5.91602 5.90076 5.43555C6.38708 4.95508 7.10486 4.71484 8.05408 4.71484H20.0511C20.9945 4.71484 21.7094 4.95801 22.1957 5.44434C22.6879 5.9248 22.934 6.63379 22.934 7.57129V15.9209C22.934 16.8584 22.6879 17.5674 22.1957 18.0479C21.7094 18.5342 20.9945 18.7773 20.0511 18.7773H8.05408ZM8.15955 17.0459H19.9369C20.3412 17.0459 20.6547 16.9404 20.8773 16.7295C21.1 16.5186 21.2113 16.1992 21.2113 15.7715V7.7207C21.2113 7.29297 21.1 6.97363 20.8773 6.7627C20.6547 6.5459 20.3412 6.4375 19.9369 6.4375H8.15955C7.74939 6.4375 7.43591 6.5459 7.21912 6.7627C7.00232 6.97363 6.89392 7.29297 6.89392 7.7207V15.7715C6.89392 16.1992 7.00232 16.5186 7.21912 16.7295C7.43591 16.9404 7.74939 17.0459 8.15955 17.0459Z" fill="#999999"/>
</svg>
